<svg xmlns="http://www.w3.org/2000/svg" viewBox="0 0 64 64">
  <defs>
    <linearGradient id="g1" x1="0" y1="0" x2="1" y2="1">
      <stop offset="0" stop-color="#f6e08a"/><stop offset=".45" stop-color="#c9a227"/><stop offset="1" stop-color="#8a6d1d"/>
    </linearGradient>
    <radialGradient id="g2" cx=".5" cy=".38" r=".72">
      <stop offset="0" stop-color="#4a3420"/><stop offset="1" stop-color="#22170e"/>
    </radialGradient>
  </defs>
  <circle cx="32" cy="32" r="29.5" fill="url(#g2)" stroke="url(#g1)" stroke-width="2.6"/>
  <circle cx="32" cy="32" r="25" fill="none" stroke="url(#g1)" stroke-width=".7" stroke-dasharray="2.5 2.5" opacity=".55"/>
  <path d="M32 26 c-5-3.6-12-4.6-16-3.8 v20.6 c4-.8 11 .2 16 3.8 c5-3.6 12-4.6 16-3.8 V22.2 c-4-.8-11 .2-16 3.8 z" fill="url(#g1)"/>
  <path d="M32 26 v20.8" stroke="#5c4712" stroke-width="1.1" fill="none" opacity=".8"/>
  <path d="M32 6.5 l1.7 3.9 4.2 .6-3.05 3-0.7 4.15 L32 15.7 l-3.15 1.95 -.7-4.15 -3.05-3 4.2-.6 z" fill="url(#g1)"/>
  <circle cx="47" cy="47" r="1.8" fill="url(#g1)"/><circle cx="17" cy="47" r="1.2" fill="url(#g1)" opacity=".8"/>
</svg>